<?xml version="1.0" standalone="no"?>
<!DOCTYPE svg PUBLIC "-//W3C//DTD SVG 20010904//EN"
 "http://www.w3.org/TR/2001/REC-SVG-20010904/DTD/svg10.dtd">
<svg version="1.0" xmlns="http://www.w3.org/2000/svg"
 width="200.000000pt" height="200.000000pt" viewBox="0 0 200.000000 200.000000"
 preserveAspectRatio="xMidYMid meet">

<g transform="translate(0.000000,200.000000) scale(0.100000,-0.100000)"
fill="#000000" stroke="none">
<path d="M440 1717 c0 -1 -45 -256 -100 -567 -55 -310 -100 -589 -100 -619 0
-147 120 -233 345 -248 220 -14 412 73 493 224 38 72 82 274 89 414 5 81 2
102 -14 140 -49 110 -117 150 -268 157 -83 3 -110 1 -160 -16 -33 -11 -62 -19
-64 -16 -4 4 74 476 85 517 5 16 -7 17 -150 17 -86 0 -156 -1 -156 -3z m366
-769 c27 -13 44 -49 44 -91 0 -53 -28 -195 -46 -232 -24 -51 -76 -79 -147 -80
-51 0 -62 3 -82 27 l-23 26 28 157 c29 171 39 190 101 205 38 9 93 4 125 -12z"/>
<path d="M1490 1697 c-55 -29 -83 -80 -88 -164 -7 -109 26 -151 127 -160 144
-13 230 61 231 199 0 74 -12 103 -52 128 -49 29 -160 28 -218 -3z"/>
<path d="M1394 1201 c-55 -14 -118 -55 -125 -81 -4 -14 -7 -59 -8 -101 l-1
-76 48 5 c52 5 82 -12 82 -46 0 -9 -23 -143 -50 -296 -28 -154 -50 -288 -50
-298 0 -17 10 -18 152 -16 l151 3 58 325 c32 179 58 352 58 385 1 85 -29 143
-89 172 -50 24 -174 38 -226 24z"/>
</g>
</svg>
